<svg width="100" height="120" viewBox="0 0 100 120" fill="none" xmlns="http://www.w3.org/2000/svg">
<path fill-rule="evenodd" clip-rule="evenodd" d="M32.6891 0.752364C30.3286 1.7084 29.6061 2.43845 28.5251 4.95962C27.5316 7.27732 27.3572 9.81439 28.0639 11.6731C28.4978 12.8136 28.4686 12.8471 27.2915 12.5585C23.9365 11.7357 21.109 11.7905 17.7117 12.7434C13.8342 13.8314 12.2831 14.6158 8.78783 17.2548C5.30752 19.8823 4.11094 21.8151 1.32846 29.3036C-0.291416 33.6627 -0.309511 38.627 1.28344 41.7003C3.12709 45.257 6.87973 48.8441 10.3358 50.3532C12.7382 51.4019 19.0866 51.9223 21.4577 51.2646C23.6832 50.6476 26.8496 48.1476 28.0299 46.0762C31.113 40.6648 31.2621 40.1943 31.0512 36.5525C30.8066 32.3262 29.8149 30.6556 26.3791 28.6822C24.5328 27.622 23.4748 27.3174 21.636 27.3174C19.3214 27.3174 19.2389 27.362 17.8768 29.3412C17.111 30.4543 16.3809 32.1382 16.2543 33.0836C16.0512 34.5963 16.1942 34.9613 17.4513 36.1354C18.8642 37.4555 20.6835 37.8846 21.2158 37.0239C21.6599 36.3053 21.0057 34.8434 20.3525 35.0941C19.2186 35.5293 19.2265 34.448 20.3666 33.0929C21.6475 31.5706 22.0951 31.4466 23.0087 32.3602C25.0108 34.3623 24.8069 37.4763 22.5294 39.6836C21.1624 41.0091 20.6597 41.2002 18.1226 41.3618C14.6123 41.5856 12.6424 40.7739 11.2574 38.533C9.55451 35.7778 10.6853 31.5401 14.1131 27.829C15.8826 25.9138 20.0916 23.7864 22.1123 23.7864C25.2673 23.7864 32.9098 28.2231 32.9098 30.0544C32.9098 30.295 33.2797 31.0189 33.7312 31.6633C35.9841 34.8757 35.8525 44.8955 33.5132 48.2712C33.1813 48.7496 32.9098 49.4806 32.9098 49.8946C32.9098 50.3086 32.6375 50.9199 32.3051 51.2523C31.9723 51.5851 31.3672 52.5014 30.9598 53.2888C30.5528 54.0762 29.2861 56.1521 28.1451 57.9017C27.0041 59.6518 25.5555 62.0763 24.9265 63.2901C24.2971 64.5039 23.12 66.7475 22.3096 68.2751L20.8371 71.0536L19.7972 68.5876C18.5406 65.6083 16.3399 62.4718 14.1444 60.5315C12.6137 59.1791 12.3282 59.097 9.14314 59.0987C5.22278 59.1005 3.39236 59.9378 2.19357 62.2776C1.78397 63.0774 1.30992 63.8308 1.14087 63.9522C0.458054 64.4426 -0.131192 67.1425 0.025499 69.0647C0.261197 71.9584 1.88813 74.2064 4.74917 75.5906C9.92439 78.0941 13.9304 76.5691 13.9304 72.0953C13.9304 69.4787 11.7517 66.2871 9.70281 65.9027C7.76029 65.5385 6.1669 66.536 5.76436 68.3691C5.41566 69.9554 6.33639 71.6689 7.78368 72.1279C9.33382 72.6201 9.83744 71.6336 8.66998 70.3906C7.58241 69.2329 7.74749 68.366 9.05531 68.366C10.1844 68.366 12.6062 71.2518 12.6062 72.5971C12.6062 73.4587 12.2434 73.859 10.9877 74.3838C9.03765 75.1986 6.54075 74.6632 4.44992 72.9811C3.23523 72.0039 3.12224 71.6671 2.96511 68.5598L2.79518 65.196L4.47993 63.4706C6.07332 61.8388 6.30991 61.7453 8.84565 61.7453C11.573 61.7453 13.0776 62.3756 14.2711 64.0188C14.5801 64.4439 15.1049 65.0636 15.4377 65.3964C16.6281 66.5868 18.3018 70.4904 18.5305 72.609C18.6585 73.7955 18.8853 78.8378 19.035 83.8144C19.1846 88.791 19.3872 93.5579 19.4847 94.4076C19.5823 95.2572 19.667 101.266 19.6728 107.759L19.6829 119.566H21.2781H22.8737L22.5854 117.911C22.427 117.001 22.1754 111.234 22.0258 105.096C21.813 96.3532 21.9163 92.1954 22.502 85.896C23.7039 72.9749 24.2062 70.599 26.8545 65.309C29.4728 60.0786 31.0384 58.336 34.8122 56.45C38.9016 54.4064 41.3694 54.903 41.8871 57.8726C42.2111 59.7317 41.5698 63.0659 40.7938 63.5576C38.8716 64.7758 36.7843 63.2296 36.9538 60.7138C37.0125 59.8416 36.9158 58.9831 36.7384 58.8061C36.0812 58.1489 34.5756 60.3448 34.3576 62.278C34.1585 64.0427 34.268 64.3437 35.4782 65.362C37.3749 66.958 39.7998 67.3424 41.2312 66.2743C43.1195 64.8645 44.8642 62.3941 45.0849 60.8179C45.6711 56.6327 43.6668 52.7954 40.593 52.2189C38.8005 51.8826 35.2196 52.6921 34.1236 53.6812C33.6986 54.0648 33.3512 54.2577 33.3512 54.1102C33.3512 53.5254 34.396 51.5935 34.712 51.5935C34.8969 51.5935 35.2929 50.8489 35.5917 49.9383C35.8905 49.0281 36.4921 47.5879 36.9286 46.7383C37.3647 45.8886 37.818 44.6969 37.9359 44.09C38.0533 43.4831 38.3878 41.8469 38.6791 40.4543C39.2145 37.8934 38.8164 35.3303 37.2208 31.0692C36.5729 29.339 34.3112 26.4347 33.6116 26.4347C33.3102 26.4347 32.5823 25.9125 31.9935 25.2743C31.4052 24.636 29.3346 23.3384 27.3925 22.3898C23.1544 20.3206 21.9883 20.337 16.5517 22.539C13.3566 23.8327 12.604 24.35 11.1784 26.2321C10.2665 27.4362 9.39429 29.1161 9.24024 29.9657C9.0862 30.8154 8.73751 31.7891 8.46606 32.1298C8.19417 32.4706 7.97171 34.3186 7.97171 36.2369C7.97171 39.4369 8.06264 39.7949 9.07517 40.5726C11.1483 42.1651 15.0316 43.7814 17.2699 43.984C23.662 44.5614 28.8888 37.704 25.8526 32.7244C24.8467 31.0745 25.2704 30.822 26.5923 32.283C28.6447 34.5512 29.0866 38.9761 27.5634 42.011C26.2145 44.6986 25.0545 45.8109 22.3166 47.0424C20.3114 47.9446 19.2389 48.1268 16.1519 48.0915C11.8784 48.0425 9.96544 47.3178 7.04745 44.643C4.09063 41.9325 2.43412 35.1882 3.94409 32.0062C4.34443 31.1627 4.86217 29.4678 5.09522 28.2404C5.82968 24.3677 8.13811 20.5484 10.808 18.7886C13.3711 17.0994 17.9615 15.4636 21.0146 15.152C23.5892 14.889 24.178 14.9967 27.1719 16.278C33.2824 18.8932 34.4467 19.5072 36.1112 20.988C37.0222 21.7988 37.9173 22.4622 38.1005 22.4622C38.2837 22.4622 39.4904 23.3295 40.7828 24.3893C42.0751 25.4495 43.9603 26.5763 44.9728 26.8937C47.17 27.5827 47.9694 28.2117 47.0645 28.5396C45.2818 29.1858 42.6203 33.5387 42.6203 35.8083C42.6203 39.0189 45.468 41.3225 48.7127 40.7372C50.988 40.3267 51.7812 39.8416 52.5231 38.4067C53.3697 36.7692 53.0108 35.5938 51.368 34.6232C50.0381 33.8375 50.0183 33.8406 48.9717 34.9688C47.5192 36.5353 47.607 37.2 49.2238 36.8769C50.9699 36.5278 51.3437 37.2772 49.8073 38.047C48.1693 38.8675 45.8459 38.2509 45.1953 36.8226C44.0283 34.2613 46.2109 31.9555 50.4446 31.2771C54.354 30.6512 57.9217 30.6388 74.3998 31.1963C82.775 31.4792 91.9615 31.5856 94.8138 31.4324L100 31.1544V29.8977C100 28.6976 99.9064 28.6402 97.9034 28.6111C92.1412 28.5268 62.3602 27.7111 60.0549 27.5747C57.0521 27.3964 52.0848 25.9337 49.4617 24.4551C48.4906 23.9077 46.3058 22.705 44.6065 21.7829C42.9072 20.8604 40.7536 19.5932 39.821 18.9669C38.8888 18.3401 37.3444 17.4199 36.3897 16.9215C33.6165 15.4742 31.8629 13.5326 31.0596 11.0216C30.4059 8.97665 30.3944 8.49245 30.9549 6.60421C31.8006 3.7573 34.3589 1.94057 37.0195 2.29764C39.2243 2.59337 40.8605 3.76965 41.7909 5.72851C43.24 8.77891 43.2342 9.14658 41.7194 10.5617C39.847 12.3109 38.4214 12.6419 37.265 11.5954C35.8419 10.3074 35.5237 9.43612 36.1593 8.56704C36.6492 7.89746 36.8545 7.87187 37.6671 8.37901C38.8703 9.13069 39.3668 8.63634 38.7555 7.29454C38.2042 6.08515 36.2259 5.54092 35.0501 6.27494C34.6153 6.54639 34.0327 7.31705 33.7551 7.98707C33.3278 9.01858 33.4108 9.52882 34.294 11.3098C35.6107 13.9647 36.839 14.6241 39.9397 14.3417C44.0146 13.9704 45.7236 11.3588 44.8726 6.80328C44.5818 5.24476 44.0172 4.24414 42.6361 2.83657C39.847 -0.00504849 36.3628 -0.735095 32.6891 0.752364Z" fill="black"/>
</svg>
